# xmcd
#
# Track frame offsets: 
#        183
#        14908
#        40275
#        66558
#        86958
#        108573
#        129290
#        150100
#        173058
#        193733
#
# Disc length: 2973 seconds
#
# Revision: 2
# Processed by: cddbd v1.5.1PL2 Copyright (c) Steve Scherf et al.
# Submitted via: ExactAudioCopy v0.95b3
#
DISCID=880b9b0a
DTITLE=George Michael - Faith
DYEAR=1987
DGENRE=Rock
TTITLE0=Faith
TTITLE1=Father Figure
TTITLE2=One More Try
TTITLE3=A Different Corner
TTITLE4=Hard Day
TTITLE5=Hand to Mouth
TTITLE6=Look at Your Hands
TTITLE7=Monkey
TTITLE8=Kissing a Fool
TTITLE9=Hard Day (Shep Petitbone Remix)
EXTD=
EXTT0=
EXTT1=
EXTT2=
EXTT3=
EXTT4=
EXTT5=
EXTT6=
EXTT7=
EXTT8=
EXTT9=
PLAYORDER=
